# xmcd
#
# Track frame offsets:
#	150
#	44972
#	71135
#	116745
#	137417
#	158085
#	192697
#
# Disc length: 3731 seconds
#
# Revision: 1
# Processed by: cddbd v1.5.1PL0 Copyright (c) Steve Scherf et al.
# Submitted via: CDex 1.50Beta5
#
DISCID=6d0e9107
DTITLE=ナルシソ・イエペス - アランフェス伝説
DYEAR=1997
DGENRE=Easy Listening
TTITLE0=ナルシソ・イエペス/アランフェス協奏曲
TTITLE1=篠崎史子/恋のアランフェス
TTITLE2=藤原清登/アランフェス協奏曲
TTITLE3=ラリー・コリエル/スケッチ・オブ・スペイン
TTITLE4=岩下志麻/恋のアランフェス
TTITLE5=エル・マタドール/恋のアランフェス
TTITLE6=ジム・ホール/アランフェス協奏曲
EXTD=
EXTT0=
EXTT1=
EXTT2=
EXTT3=
EXTT4=
EXTT5=
EXTT6=
PLAYORDER=
